<?xml version="1.0" encoding="utf-8"?>
<!-- Generator: Adobe Illustrator 26.4.0, SVG Export Plug-In . SVG Version: 6.00 Build 0)  -->
<svg version="1.1" id="Layer_1" xmlns="http://www.w3.org/2000/svg" xmlns:xlink="http://www.w3.org/1999/xlink" x="0px" y="0px"
	 viewBox="0 0 500 268.9" style="enable-background:new 0 0 500 268.9;" xml:space="preserve">
<style type="text/css">
	.st0{fill:#211F1F;} 
	.st1{fill:#FFFFFF;}
	.st2{fill:#602D91;}
</style>
<path class="st0" d="M467.5,135.6c0,64.6-97.5,116.9-217.7,116.9c-120.2,0-217.7-52.3-217.7-116.9c0-64.6,97.5-116.9,217.7-116.9
	C370,18.7,467.5,71.1,467.5,135.6z"/>
<g>
	<path class="st1" d="M459.8,135.7c0,63.7-94.1,115.3-210.2,115.3c-116.1,0-210.2-51.6-210.2-115.3c0-63.7,94.1-115.3,210.2-115.3
		C365.7,20.4,459.8,72,459.8,135.7z"/>
</g>
<path class="st2" d="M442.7,136c0,61.6-86.4,111.5-193,111.5c-106.6,0-193-49.9-193-111.5c0-61.6,86.4-111.5,193-111.5
	C356.3,24.5,442.7,74.4,442.7,136z"/>
<path class="st0" d="M375.4,75.1l-73-29.8l-34.7,14V45.1h-16.9v21L226.4,76h23.1l53.8-21.9l68.8,29.2c0,0,45.6,20.6,45.6,54.5
	c0,37.9-44.9,60-57.8,64.8c-21.5,8-65.1,12.8-74.5,13.1c-9.4,0.3-43.2,0.2-43.2,0.2l-1.5,4c0,0,25.2,2.1,36.8,2.1
	c43.5,0,74.8-9.1,94.3-17.6c19.5-8.5,58.1-27.7,58.1-66.9C429.9,98.2,375.4,75.1,375.4,75.1z M255.5,49.9h7.6v11.3l-7.6,3.1V49.9z"
	/>
<path class="st1" d="M376.5,73.4l-73-29.8l-34.7,14V43.4h-16.9v21l-24.5,9.9h23.1l53.8-21.9l68.8,29.2c0,0,45.6,20.6,45.6,54.4
	c0,37.9-44.9,60-57.8,64.8c-21.5,8-65.1,12.8-74.5,13.1c-9.4,0.3-43.2,0.2-43.2,0.2l-1.5,4c0,0,25.2,2.1,36.8,2.1
	c43.5,0,74.8-9.1,94.3-17.6c19.5-8.5,58.1-27.7,58.1-66.9C430.9,96.5,376.5,73.4,376.5,73.4z M256.5,48.2h7.6v11.3l-7.6,3.1V48.2z"
	/>
<g>
	<g>
		<path class="st0" d="M182.7,97.7h8.9l-2.5,18.7c-0.3,2.1-0.4,3.6-0.4,4.6c0,1.6,0.6,3,1.7,4.1c1.1,1.1,2.6,1.6,4.4,1.6
			c2.3,0,4.1-0.7,5.3-2.1c1.2-1.4,2.1-4.3,2.7-8.6l2.5-18.3h8.9l-2.6,19.6c-0.6,4.4-1.6,7.9-3,10.3c-1.4,2.4-3.3,4.3-5.7,5.6
			c-2.4,1.3-5.1,1.9-8.3,1.9c-4.5,0-8.1-1.3-10.7-3.9c-2.7-2.6-4-5.9-4-10c0-2.5,0.3-5.7,0.9-9.7L182.7,97.7z"/>
		<path class="st0" d="M223.2,97.7h8.9l-0.5,3.7c3.4-3.1,7-4.6,10.7-4.6c3.2,0,5.7,1,7.8,3c2,2,3,4.5,3,7.6c0,1.4-0.2,3.6-0.6,6.4
			l-2.8,20.5h-8.9l2.7-20c0.3-2.1,0.4-3.6,0.4-4.6c0-1.5-0.4-2.6-1.3-3.4c-0.8-0.8-2-1.2-3.6-1.2c-1.5,0-3,0.5-4.5,1.6
			c-1.5,1-2.7,2.5-3.5,4.3c-0.8,1.8-1.5,5.3-2.2,10.4l-1.7,12.9h-8.9L223.2,97.7z"/>
		<path class="st0" d="M283.7,102.8l-4.3,6.9c-1.1-1.6-2.3-2.8-3.5-3.6c-1.2-0.8-2.4-1.2-3.4-1.2c-0.8,0-1.5,0.2-2,0.7
			c-0.6,0.4-0.8,0.9-0.8,1.5c0,0.5,0.2,1.1,0.7,1.6c0.4,0.5,1.7,1.6,3.9,3.1c3.4,2.5,5.7,4.6,6.8,6.3c1.1,1.7,1.6,3.7,1.6,5.7
			c0,2.7-1.1,5.3-3.3,7.7c-2.2,2.4-5.4,3.6-9.7,3.6c-2.4,0-4.7-0.5-6.7-1.5c-2-1-4.2-2.8-6.7-5.4l5.5-6.4c2.5,3.3,5.2,5,8.2,5
			c1.2,0,2.1-0.3,2.8-0.9c0.7-0.6,1.1-1.2,1.1-2c0-0.6-0.3-1.3-0.8-1.9c-0.5-0.7-2-1.8-4.4-3.5c-2.8-2-4.7-3.7-5.7-5.1
			c-1.5-2-2.2-4-2.2-6.2c0-3.1,1.1-5.6,3.5-7.5c2.3-1.9,5.1-2.9,8.2-2.9c2.2,0,4.3,0.5,6.3,1.6C280.7,99.4,282.4,100.9,283.7,102.8z
			"/>
		<path class="st0" d="M295.1,84.2h8.9l-1.8,13.6h5.7l-1.1,7.7h-5.6l-3.9,28.8h-8.9l3.9-28.8h-4.4l1-7.7h4.4L295.1,84.2z"/>
		<path class="st0" d="M335.6,123.6l7.9,4.1c-1.8,2.3-4.1,4.2-7,5.5c-2.9,1.4-6.2,2-9.7,2c-5.6,0-10-1.6-13.2-4.7
			c-3.2-3.1-4.8-7.3-4.8-12.5c0-5.9,2-10.9,6-15.1c4-4.1,8.9-6.2,14.6-6.2c3.4,0,6.5,0.8,9.1,2.3c2.7,1.5,4.8,3.7,6.3,6.5
			c1.6,2.9,2.3,6,2.3,9.3c0,1.1-0.1,2.3-0.3,3.7h-29.1c0.1,2.5,0.9,4.6,2.5,6.1c1.6,1.5,3.8,2.3,6.5,2.3
			C330,126.9,333,125.8,335.6,123.6z M337.8,112c-0.7-2.2-1.8-3.9-3.4-5.1c-1.6-1.1-3.5-1.7-5.7-1.7c-2.2,0-4.2,0.6-5.9,1.8
			c-1.8,1.2-3.1,2.9-4,5H337.8z"/>
		<path class="st0" d="M354.4,97.7h8l-0.6,5c2.4-3.9,5.3-5.9,8.6-5.9c0.8,0,1.7,0.2,2.5,0.6l-3.3,8.1c-0.7-0.2-1.2-0.4-1.5-0.4
			c-1.7,0-3.3,1-4.7,3c-1.4,2-2.5,6.1-3.2,12.3l-1.8,13.7h-9L354.4,97.7z"/>
	</g>
	<g>
		<path class="st0" d="M116.1,63h12.5c11.7,0,20.3,1.4,26,4.1c5.7,2.8,10.3,7.1,13.9,13c3.6,5.9,5.3,12.7,5.3,20.5
			c0,7.9-1.9,15.2-5.7,21.9c-3.8,6.6-8.6,11.5-14.3,14.5c-5.8,3-13.8,4.6-24,4.6h-24.4L116.1,63z M129,76.8l-6.9,51h4.9
			c7.5,0,12.9-0.6,16.2-1.9c4.7-1.8,8.5-4.8,11.3-9.1c2.9-4.3,4.3-9.6,4.3-16c0-5.2-1-9.6-3-13.1c-2-3.5-4.8-6.2-8.5-8.1
			c-3.6-1.9-8.5-2.9-14.5-2.9H129z"/>
	</g>
	<g>
		<path class="st0" d="M240.7,156.7c3.2,0,6.2,0.8,8.8,2.3c2.7,1.5,4.7,3.6,6.2,6.4c1.5,2.8,2.2,5.8,2.2,9.3c0,5.7-2,10.5-6.1,14.5
			c-4.1,4-9.1,6-15,6c-5.2,0-9.3-1.6-12.4-4.7c-3.1-3.1-4.6-7.3-4.6-12.3c0-6.1,2.1-11.2,6.3-15.3
			C230.2,158.8,235.1,156.7,240.7,156.7z M240.1,165.2c-3.7,0-6.5,1.3-8.4,3.9c-1.9,2.6-2.9,5.5-2.9,8.5c0,2.7,0.8,4.9,2.4,6.6
			c1.6,1.7,3.7,2.5,6.4,2.5c3.8,0,6.7-1.3,8.6-3.8c2-2.5,3-5.4,3-8.7c0-2.7-0.8-4.9-2.5-6.5C244.9,166.1,242.7,165.2,240.1,165.2z"
			/>
		<path class="st0" d="M267.7,157.7h8.9l-2.5,18.7c-0.3,2.1-0.4,3.6-0.4,4.6c0,1.6,0.6,3,1.7,4.1c1.1,1.1,2.6,1.6,4.4,1.6
			c2.3,0,4.1-0.7,5.3-2.1c1.2-1.4,2.2-4.3,2.7-8.6l2.5-18.3h8.9l-2.6,19.6c-0.6,4.4-1.6,7.9-3,10.3c-1.4,2.4-3.3,4.3-5.7,5.6
			c-2.4,1.3-5.1,1.9-8.3,1.9c-4.5,0-8.1-1.3-10.7-3.9c-2.7-2.6-4-5.9-4-10c0-2.5,0.3-5.7,0.9-9.7L267.7,157.7z"/>
		<path class="st0" d="M328.1,162.8l-4.3,6.8c-1.1-1.6-2.3-2.8-3.5-3.6c-1.2-0.8-2.3-1.2-3.4-1.2c-0.8,0-1.5,0.2-2,0.7
			c-0.6,0.5-0.8,1-0.8,1.5c0,0.5,0.2,1.1,0.7,1.6c0.4,0.5,1.7,1.6,3.9,3.1c3.4,2.5,5.7,4.6,6.8,6.3c1.1,1.8,1.6,3.7,1.6,5.7
			c0,2.7-1.1,5.3-3.3,7.7c-2.2,2.4-5.5,3.6-9.7,3.6c-2.4,0-4.7-0.5-6.7-1.5c-2-1-4.2-2.8-6.7-5.4l5.5-6.4c2.5,3.3,5.2,5,8.2,5
			c1.2,0,2.1-0.3,2.8-0.9c0.7-0.6,1-1.2,1-2c0-0.6-0.3-1.3-0.8-1.9c-0.5-0.7-2-1.8-4.4-3.5c-2.8-2-4.7-3.7-5.7-5.1
			c-1.5-2-2.2-4-2.2-6.2c0-3.1,1.2-5.6,3.5-7.5c2.3-1.9,5-2.9,8.2-2.9c2.2,0,4.3,0.5,6.3,1.6C325.2,159.4,326.8,160.8,328.1,162.8z"
			/>
		<path class="st0" d="M360.1,183.5l7.9,4.1c-1.8,2.3-4.1,4.2-7,5.5c-2.9,1.4-6.2,2-9.7,2c-5.6,0-10-1.6-13.2-4.7
			c-3.2-3.1-4.8-7.3-4.8-12.5c0-5.9,2-11,6-15.1c4-4.1,8.9-6.2,14.5-6.2c3.4,0,6.5,0.8,9.1,2.3c2.7,1.5,4.8,3.7,6.3,6.5
			c1.5,2.9,2.3,6,2.3,9.3c0,1.1-0.1,2.3-0.3,3.7h-29.1c0.1,2.5,0.9,4.6,2.5,6.1c1.6,1.5,3.8,2.3,6.5,2.3
			C354.5,186.9,357.5,185.7,360.1,183.5z M362.3,172c-0.7-2.2-1.8-3.9-3.4-5.1c-1.6-1.2-3.5-1.7-5.7-1.7c-2.2,0-4.2,0.6-5.9,1.8
			c-1.8,1.2-3.1,2.9-4,5H362.3z"/>
	</g>
	<g>
		<path class="st0" d="M161,150h14.8l-4.1,29.6h27l4-29.6h14.9l-10.8,78.6h-14.7l4.9-35.7h-27l-4.9,35.7h-14.7L161,150z"/>
	</g>
</g>
<g>
	<path class="st1" d="M251.4,157.5c-2.7-1.5-5.6-2.2-8.8-2.2c-5.6,0-10.4,2-14.6,6.1c-4.2,4-6.3,9.1-6.3,15.3
		c0,5.1,1.5,9.2,4.6,12.3c3.1,3.1,7.2,4.7,12.4,4.7c6,0,11-2,15-6c4-4,6.1-8.8,6.1-14.5c0-3.4-0.7-6.5-2.2-9.3
		C256.2,161.1,254.1,159,251.4,157.5z M248,181.5c-2,2.5-4.9,3.8-8.6,3.8c-2.7,0-4.8-0.8-6.4-2.5c-1.6-1.7-2.4-3.9-2.4-6.6
		c0-3.1,1-5.9,2.9-8.5c2-2.6,4.8-3.9,8.4-3.9c2.7,0,4.8,0.8,6.5,2.5c1.7,1.7,2.5,3.9,2.5,6.5C251,176.1,250,179,248,181.5z"/>
	<path class="st1" d="M289.6,174.5c-0.6,4.3-1.5,7.2-2.7,8.6c-1.2,1.4-3,2.1-5.3,2.1c-1.8,0-3.3-0.5-4.4-1.7
		c-1.1-1.1-1.7-2.4-1.7-4.1c0-1,0.1-2.6,0.4-4.6l2.5-18.7h-8.9l-2,13.9c-0.6,3.9-0.9,7.2-0.9,9.7c0,4.1,1.3,7.4,4,10
		c2.6,2.6,6.2,3.9,10.7,3.9c3.2,0,5.9-0.6,8.3-1.9c2.4-1.3,4.2-3.2,5.7-5.6c1.4-2.4,2.4-5.9,3-10.3l2.6-19.6h-8.9L289.6,174.5z"/>
	<path class="st1" d="M316.8,164c0.6-0.5,1.2-0.7,2-0.7c1,0,2.2,0.4,3.4,1.1c1.2,0.8,2.4,2,3.5,3.6l4.3-6.9c-1.3-1.9-3-3.4-5-4.4
		c-2-1.1-4.1-1.6-6.3-1.6c-3.2,0-5.9,1-8.2,2.9c-2.3,1.9-3.5,4.4-3.5,7.5c0,2.2,0.7,4.3,2.2,6.2c1,1.4,3,3.1,5.7,5.1
		c2.4,1.7,3.9,2.9,4.4,3.5c0.5,0.7,0.8,1.3,0.8,1.9c0,0.8-0.4,1.5-1.1,2c-0.7,0.6-1.6,0.9-2.8,0.9c-3,0-5.7-1.7-8.2-5l-5.5,6.4
		c2.5,2.6,4.7,4.4,6.7,5.4c2,1,4.2,1.5,6.7,1.5c4.2,0,7.5-1.2,9.7-3.6c2.2-2.4,3.3-5,3.3-7.7c0-2.1-0.5-4-1.6-5.7
		c-1.1-1.7-3.4-3.9-6.8-6.3c-2.2-1.5-3.5-2.6-3.9-3.1c-0.4-0.5-0.7-1.1-0.7-1.6C316,165,316.3,164.5,316.8,164z"/>
	<path class="st1" d="M364.8,157.5c-2.7-1.5-5.7-2.2-9.2-2.2c-5.7,0-10.5,2-14.5,6.2c-4,4.1-6,9.1-6,15.1c0,5.2,1.6,9.3,4.8,12.5
		c3.2,3.1,7.6,4.7,13.2,4.7c3.6,0,6.8-0.7,9.7-2c2.9-1.4,5.3-3.2,7-5.5L362,182c-2.6,2.2-5.6,3.4-8.9,3.4c-2.8,0-5-0.8-6.5-2.3
		c-1.6-1.5-2.4-3.5-2.5-6.1h29.1c0.2-1.4,0.3-2.6,0.3-3.7c0-3.4-0.8-6.5-2.3-9.3C369.6,161.2,367.5,159,364.8,157.5z M345.3,170.5
		c0.9-2.2,2.3-3.8,4-5c1.8-1.2,3.8-1.8,5.9-1.8c2.2,0,4.1,0.6,5.7,1.7c1.6,1.1,2.7,2.8,3.4,5.1H345.3z"/>
	<polygon class="st1" points="200.5,178.2 173.6,178.2 177.7,148.5 162.9,148.5 152.1,227.1 166.8,227.1 171.8,191.4 198.7,191.4 
		193.9,227.1 208.6,227.1 219.4,148.5 204.6,148.5 	"/>
	<path class="st1" d="M196.4,133.7c3.2,0,6-0.7,8.3-2c2.4-1.3,4.2-3.2,5.7-5.6c1.4-2.4,2.4-5.8,3-10.3l2.6-19.6h-8.9l-2.5,18.3
		c-0.6,4.3-1.5,7.2-2.7,8.6c-1.2,1.4-3,2.1-5.3,2.1c-1.8,0-3.2-0.5-4.4-1.6c-1.1-1.1-1.7-2.5-1.7-4.1c0-1,0.1-2.6,0.4-4.6l2.6-18.7
		h-8.9l-2,13.9c-0.6,3.9-0.9,7.2-0.9,9.7c0,4.1,1.3,7.4,4,10C188.3,132.4,191.9,133.7,196.4,133.7z"/>
	<path class="st1" d="M230.7,119.9c0.7-5.1,1.4-8.5,2.2-10.4c0.8-1.8,2-3.3,3.5-4.3c1.5-1,3-1.6,4.5-1.6c1.6,0,2.7,0.4,3.6,1.2
		c0.8,0.8,1.3,1.9,1.3,3.4c0,1-0.1,2.6-0.4,4.6l-2.7,20h8.9l2.8-20.5c0.4-2.9,0.6-5,0.6-6.4c0-3.1-1-5.6-3-7.6c-2-2-4.6-3-7.8-3
		c-3.7,0-7.3,1.6-10.7,4.6l0.5-3.7h-8.9l-5,36.5h9L230.7,119.9z"/>
	<path class="st1" d="M281.2,130.1c2.2-2.4,3.3-5,3.3-7.7c0-2.1-0.6-4-1.6-5.7c-1.1-1.8-3.4-3.9-6.8-6.3c-2.1-1.6-3.4-2.6-3.9-3.1
		c-0.5-0.5-0.7-1.1-0.7-1.6c0-0.6,0.3-1.1,0.8-1.5c0.6-0.4,1.2-0.7,2-0.7c1.1,0,2.2,0.4,3.4,1.2c1.2,0.8,2.4,2,3.5,3.6l4.3-6.9
		c-1.3-1.9-3-3.4-5-4.5c-2-1.1-4.1-1.6-6.3-1.6c-3.1,0-5.9,1-8.2,2.9c-2.3,1.9-3.5,4.4-3.5,7.5c0,2.2,0.7,4.3,2.2,6.2
		c1,1.4,3,3.1,5.7,5.1c2.4,1.7,3.9,2.9,4.4,3.5c0.5,0.7,0.8,1.3,0.8,1.9c0,0.8-0.4,1.4-1.1,2c-0.7,0.6-1.7,0.9-2.8,0.9
		c-3,0-5.7-1.7-8.2-5l-5.5,6.4c2.5,2.6,4.7,4.4,6.7,5.4c2,1,4.2,1.5,6.7,1.5C275.7,133.7,279,132.5,281.2,130.1z"/>
	<polygon class="st1" points="290.1,132.8 299.1,132.8 303,104 308.6,104 309.7,96.3 304,96.3 305.9,82.7 297,82.7 295.1,96.3 
		290.7,96.3 289.7,104 294.1,104 	"/>
	<path class="st1" d="M328.6,133.7c3.6,0,6.8-0.7,9.7-2c2.9-1.3,5.3-3.2,7-5.5l-7.9-4.1c-2.6,2.2-5.6,3.4-8.9,3.4
		c-2.8,0-5-0.8-6.5-2.3c-1.6-1.5-2.4-3.5-2.5-6.1h29.1c0.2-1.4,0.3-2.6,0.3-3.7c0-3.4-0.8-6.5-2.3-9.3c-1.5-2.9-3.6-5-6.3-6.5
		c-2.7-1.5-5.7-2.3-9.1-2.3c-5.7,0-10.5,2.1-14.6,6.2c-4,4.1-6,9.1-6,15c0,5.2,1.6,9.4,4.8,12.5C318.6,132.2,323,133.7,328.6,133.7z
		 M324.8,105.5c1.8-1.2,3.7-1.8,5.9-1.8c2.2,0,4.1,0.6,5.7,1.7c1.6,1.2,2.7,2.8,3.4,5.1h-19C321.7,108.4,323,106.7,324.8,105.5z"/>
	<path class="st1" d="M362.1,119.1c0.8-6.1,1.9-10.2,3.2-12.3c1.4-2,2.9-3,4.7-3c0.3,0,0.8,0.1,1.5,0.4l3.3-8.1
		c-0.9-0.4-1.7-0.6-2.5-0.6c-3.4,0-6.2,2-8.6,5.9l0.6-5h-8l-5,36.5h9L362.1,119.1z"/>
	<path class="st1" d="M170,121c3.8-6.6,5.7-13.9,5.7-21.9c0-7.7-1.8-14.5-5.4-20.5c-3.6-5.9-8.2-10.2-13.9-13
		c-5.7-2.8-14.4-4.1-26-4.1H118l-10.7,78.6h24.4c10.2,0,18.3-1.5,24-4.6C161.4,132.5,166.2,127.6,170,121z M145.1,124.5
		c-3.3,1.2-8.8,1.9-16.2,1.9H124l6.9-51h3.7c6.1,0,10.9,1,14.5,2.9c3.6,1.9,6.5,4.6,8.5,8.1c2,3.5,3,7.9,3,13.1
		c0,6.3-1.4,11.7-4.3,16C153.5,119.7,149.7,122.7,145.1,124.5z"/>
</g>
</svg>
